name analog
datacolumns 19
datarows 46
range 0.0 0.0225
endheader
time	ground_force_vx	ground_force_vy	ground_force_vz	ground_force_px	ground_force_py	ground_force_pz	l_ground_force_vx	l_ground_force_vy	l_ground_force_vz	l_ground_force_px	l_ground_force_py	l_ground_force_pz	ground_torque_x	ground_torque_y	ground_torque_z	l_ground_torque_x	l_ground_torque_y	l_ground_torque_z
0.0	-0.0	-0.0	-0.0	2.31248140335083	30.256446838378903	-260.8642578125	-6.209754943847656	-21.36114883422852	-247.81472778320312	-0.0	-0.0	-0.0	-0.0	-0.0	-0.0	70735.2734375	-9812.3095703125	-1994.5533447265625
0.0005	-0.0	-0.0	-0.0	2.0656421184539795	30.11934471130371	-260.6201171875	-5.888784408569336	-21.495893478393555	-247.06602478027344	-0.0	-0.0	-0.0	-0.0	-0.0	-0.0	70585.140625	-9919.4599609375	-1905.4521484375
0.001	-0.0	-0.0	-0.0	2.2098159790039062	29.93389320373535	-261.3789367675781	-5.745323181152344	-21.399810791015625	-247.08631896972656	-0.0	-0.0	-0.0	-0.0	-0.0	-0.0	70510.0859375	-9853.349609375	-1933.3240966796875
0.0015	-0.0	-0.0	-0.0	2.258558750152588	29.680423736572266	-261.8427429199219	-6.024847030639648	-21.638813018798828	-245.7211151123047	-0.0	-0.0	-0.0	-0.0	-0.0	-0.0	70419.6640625	-9846.865234375	-1946.8052978515625
0.002	-0.0	-0.0	-0.0	3.2721965312957764	29.87887191772461	-261.0799560546875	-6.107645034790039	-21.679906845092773	-247.4145355224609	-0.0	-0.0	-0.0	-0.0	-0.0	-0.0	70322.0078125	-9837.4482421875	-1849.02099609375
0.0025	-0.0	-0.0	-0.0	3.246121406555176	29.631505966186523	-260.1568603515625	-5.732123374938965	-22.121353149414062	-247.57403564453125	-0.0	-0.0	-0.0	-0.0	-0.0	-0.0	70311.140625	-9816.6708984375	-1723.336181640625
0.003	-0.0	-0.0	-0.0	3.226210117340088	29.99308967590332	-259.9616394042969	-5.807029724121094	-21.761133193969727	-245.7749786376953	-0.0	-0.0	-0.0	-0.0	-0.0	-0.0	70553.8515625	-9691.5849609375	-1638.945556640625
0.0035	-0.0	-0.0	-0.0	3.429795026779175	29.90805435180664	-261.5487976074219	-5.588779449462891	-22.17518615722656	-246.50103759765625	-0.0	-0.0	-0.0	-0.0	-0.0	-0.0	70455.4453125	-9750.9169921875	-1682.2261962890625
0.004	-0.0	-0.0	-0.0	3.270846366882324	30.086599349975582	-260.1561584472656	-5.377097606658936	-22.501928329467773	-246.77072143554688	-0.0	-0.0	-0.0	-0.0	-0.0	-0.0	70509.6796875	-9774.896484375	-1565.5723876953125
0.0045000000000000005	-0.0	-0.0	-0.0	3.172271966934204	29.79525375366211	-259.9404296875	-5.451533794403076	-22.536191940307617	-248.1677398681641	-0.0	-0.0	-0.0	-0.0	-0.0	-0.0	70908.8203125	-9810.484375	-1540.657958984375
0.005	-0.0	-0.0	-0.0	2.8589885234832764	29.89348793029785	-259.5098876953125	-5.096514701843262	-23.057579040527344	-250.1499938964844	-0.0	-0.0	-0.0	-0.0	-0.0	-0.0	71126.5625	-9981.7978515625	-1410.37890625
0.0055	-0.0	-0.0	-0.0	2.982748985290528	29.587400436401367	-258.589111328125	-4.918810844421387	-23.26287841796875	-250.36253356933597	-0.0	-0.0	-0.0	-0.0	-0.0	-0.0	71174.578125	-9990.8837890625	-1349.159912109375
0.006	-0.0	-0.0	-0.0	2.726926326751709	29.432315826416016	-259.1576843261719	-5.199460029602051	-23.53291130065918	-250.26394653320312	-0.0	-0.0	-0.0	-0.0	-0.0	-0.0	71112.6484375	-10152.0888671875	-1283.543701171875
0.006500000000000001	-0.0	-0.0	-0.0	2.377125024795532	29.241641998291016	-259.09552001953125	-4.967803955078125	-23.90081024169922	-249.4300994873047	-0.0	-0.0	-0.0	-0.0	-0.0	-0.0	71117.828125	-10346.212890625	-1136.83740234375
0.007	-0.0	-0.0	-0.0	2.389608383178711	29.4542293548584	-258.7420654296875	-4.978374004364014	-24.269014358520508	-248.22915649414065	-0.0	-0.0	-0.0	-0.0	-0.0	-0.0	71063.65625	-10172.494140625	-1100.741943359375
0.0075	-0.0	-0.0	-0.0	2.4789035320281982	29.41303253173828	-260.5078125	-5.002433776855469	-24.680482864379883	-247.6418609619141	-0.0	-0.0	-0.0	-0.0	-0.0	-0.0	70734.9453125	-10054.7724609375	-1006.8240356445312
0.008	-0.0	-0.0	-0.0	2.3169565200805664	29.753236770629883	-261.5023803710937	-4.470239639282227	-24.79916763305664	-246.21246337890625	-0.0	-0.0	-0.0	-0.0	-0.0	-0.0	70376.46875	-10132.0986328125	-787.2003784179688
0.0085	-0.0	-0.0	-0.0	2.373452425003052	30.177743911743164	-261.9942626953125	-4.717212677001953	-25.47124290466309	-245.81716918945312	-0.0	-0.0	-0.0	-0.0	-0.0	-0.0	70068.921875	-10214.2177734375	-627.5725708007812
0.009000000000000001	-0.0	-0.0	-0.0	1.9626312255859373	30.714746475219727	-261.6324462890625	-4.438997268676758	-25.294641494750977	-244.7552795410156	-0.0	-0.0	-0.0	-0.0	-0.0	-0.0	70006.65625	-10141.013671875	-578.4375610351562
0.0095	-0.0	-0.0	-0.0	1.817858099937439	31.08970069885254	-261.9794921875	-4.169406890869141	-25.61638069152832	-244.68055725097656	-0.0	-0.0	-0.0	-0.0	-0.0	-0.0	69772.0859375	-10302.818359375	-424.7684020996094
0.01	-0.0	-0.0	-0.0	1.7488151788711548	31.35694122314453	-262.765869140625	-4.010869026184082	-25.701610565185547	-245.316162109375	-0.0	-0.0	-0.0	-0.0	-0.0	-0.0	69869.328125	-10420.6796875	-341.0455017089844
0.0105	-0.0	-0.0	-0.0	1.4811395406723022	31.55216217041016	-262.6981506347656	-3.779606580734253	-26.19411277770996	-246.99815368652344	-0.0	-0.0	-0.0	-0.0	-0.0	-0.0	69791.8359375	-10583.73828125	-216.10836791992188
0.011	-0.0	-0.0	-0.0	1.2853277921676636	31.90781593322754	-263.6848449707031	-4.027013301849365	-26.319862365722656	-245.3891448974609	-0.0	-0.0	-0.0	-0.0	-0.0	-0.0	69905.5234375	-10747.693359375	-110.25432586669922
0.0115	-0.0	-0.0	-0.0	1.124176263809204	32.5681266784668	-261.9187316894531	-3.814563751220703	-26.67314910888672	-246.43600463867188	-0.0	-0.0	-0.0	-0.0	-0.0	-0.0	70175.9765625	-10898.029296875	-81.2253646850586
0.012	-0.0	-0.0	-0.0	0.5885777473449707	32.92472076416016	-261.9163513183594	-3.709118843078613	-27.04476928710937	-247.33767700195312	-0.0	-0.0	-0.0	-0.0	-0.0	-0.0	70342.921875	-10962.30859375	-3.9115586280822754
0.0125	-0.0	-0.0	-0.0	0.5531919002532959	32.94261169433594	-261.84783935546875	-3.923086881637573	-27.45126342773437	-247.4041748046875	-0.0	-0.0	-0.0	-0.0	-0.0	-0.0	70442.84375	-11125.5654296875	103.25731658935548
0.013000000000000001	-0.0	-0.0	-0.0	-0.0357132405042648	32.99602127075195	-261.28277587890625	-4.008962631225586	-27.43297004699707	-247.76400756835935	-0.0	-0.0	-0.0	-0.0	-0.0	-0.0	70323.8046875	-11339.783203125	31.62527084350586
0.0135	-0.0	-0.0	-0.0	-0.7484683990478516	33.565914154052734	-261.4948425292969	-4.541439056396484	-27.6627197265625	-246.57232666015625	-0.0	-0.0	-0.0	-0.0	-0.0	-0.0	70732.6640625	-11356.9560546875	72.98804473876953
0.014	-0.0	-0.0	-0.0	-0.8745681047439575	33.99449157714844	-262.55157470703125	-4.791045188903809	-27.909652709960938	-247.4093475341797	-0.0	-0.0	-0.0	-0.0	-0.0	-0.0	70442.609375	-11592.4658203125	155.66650390625
0.0145	-0.0	-0.0	-0.0	-1.3566014766693115	34.065242767333984	-260.5086975097656	-5.109827995300293	-28.38650321960449	-247.33865356445312	-0.0	-0.0	-0.0	-0.0	-0.0	-0.0	70799.828125	-11749.576171875	202.79470825195312
0.015	-0.0	-0.0	-0.0	-1.7122987508773804	34.31385040283203	-260.6521911621094	-5.234016418457031	-28.84587860107422	-248.3863983154297	-0.0	-0.0	-0.0	-0.0	-0.0	-0.0	70614.4296875	-11872.482421875	155.04786682128906
0.0155	-0.0	-0.0	-0.0	-1.4977693557739258	34.294803619384766	-261.2914733886719	-5.30497407913208	-28.828060150146484	-246.989990234375	-0.0	-0.0	-0.0	-0.0	-0.0	-0.0	70533.296875	-11923.2255859375	149.1021270751953
0.016	-0.0	-0.0	-0.0	-2.143018960952759	34.6527214050293	-260.1507873535156	-5.109636306762695	-29.55233192443848	-247.13034057617188	-0.0	-0.0	-0.0	-0.0	-0.0	-0.0	70441.234375	-11865.7119140625	297.4008483886719
0.0165	-0.0	-0.0	-0.0	-2.15802001953125	34.259979248046875	-261.63916015625	-5.180858135223389	-29.3582763671875	-247.1277618408203	-0.0	-0.0	-0.0	-0.0	-0.0	-0.0	70391.5234375	-11893.447265625	392.4878234863281
0.017	-0.0	-0.0	-0.0	-2.8185744285583496	35.329383850097656	-261.0668334960937	-4.913824558258057	-29.74618148803711	-245.73439025878903	-0.0	-0.0	-0.0	-0.0	-0.0	-0.0	69935.6875	-12053.65625	552.5665283203125
0.0175	-0.0	-0.0	-0.0	-2.746037721633911	35.081180572509766	-260.37078857421875	-4.916130542755127	-30.275901794433597	-244.75018310546875	-0.0	-0.0	-0.0	-0.0	-0.0	-0.0	69740.4296875	-12122.837890625	635.22998046875
0.018000000000000002	-0.0	-0.0	-0.0	-2.871378183364868	35.955806732177734	-259.65313720703125	-4.329705238342285	-30.170379638671875	-244.47352600097656	-0.0	-0.0	-0.0	-0.0	-0.0	-0.0	69640.6328125	-12172.025390625	724.6150512695312
0.0185	-0.0	-0.0	-0.0	-3.373446226119995	35.90301513671875	-259.6000366210937	-4.3997015953063965	-30.54058265686035	-242.37826538085935	-0.0	-0.0	-0.0	-0.0	-0.0	-0.0	69264.6640625	-12292.7138671875	748.9859619140625
0.019	-0.0	-0.0	-0.0	-3.7268528938293457	35.93594741821289	-259.23406982421875	-4.313040733337402	-30.611873626708984	-243.08436584472656	-0.0	-0.0	-0.0	-0.0	-0.0	-0.0	68965.7421875	-12322.2763671875	915.1006469726562
0.0195	-0.0	-0.0	-0.0	-3.552112102508545	36.18694305419922	-258.96063232421875	-4.382787704467773	-30.683425903320312	-241.6316070556641	-0.0	-0.0	-0.0	-0.0	-0.0	-0.0	68690.3671875	-12349.9814453125	1056.2005615234375
0.02	-0.0	-0.0	-0.0	-3.4953763484954834	36.68523788452149	-260.0210266113281	-4.152755737304688	-31.06993865966797	-242.0383453369141	-0.0	-0.0	-0.0	-0.0	-0.0	-0.0	68738.7421875	-12386.109375	1111.7325439453125
0.0205	-0.0	-0.0	-0.0	-3.406085729598999	36.75825500488281	-257.114990234375	-3.706352949142456	-31.232881546020508	-242.02728271484372	-0.0	-0.0	-0.0	-0.0	-0.0	-0.0	68735.3828125	-12439.54296875	1100.04150390625
0.021	-0.0	-0.0	-0.0	-3.0331573486328125	37.5192985534668	-258.591064453125	-4.024954319000244	-31.33465576171875	-241.6129150390625	-0.0	-0.0	-0.0	-0.0	-0.0	-0.0	68567.2265625	-12457.15234375	1241.6317138671875
0.021500000000000002	-0.0	-0.0	-0.0	-2.9280898571014404	37.90122222900391	-257.8841552734375	-3.423537015914917	-32.07704544067383	-241.89773559570312	-0.0	-0.0	-0.0	-0.0	-0.0	-0.0	68542.3125	-12647.904296875	1283.705078125
0.022	-0.0	-0.0	-0.0	-2.539828300476074	38.36276626586914	-256.8866271972656	-3.673374891281128	-31.95627784729004	-241.8341827392578	-0.0	-0.0	-0.0	-0.0	-0.0	-0.0	68640.5390625	-12801.9365234375	1330.8360595703125
0.0225	-0.0	-0.0	-0.0	-2.497894287109375	38.949989318847656	-255.97195434570312	-3.270083427429199	-32.39796829223633	-240.6446075439453	-0.0	-0.0	-0.0	-0.0	-0.0	-0.0	68534.90625	-12698.0869140625	1479.3720703125
